<svg width="122" height="51" viewBox="0 0 122 51" fill="none" xmlns="http://www.w3.org/2000/svg">
<path d="M44.6855 32.6095C44.6855 32.6095 44.157 32.7925 42.9372 32.7925C38.3629 32.7925 39.908 27.9742 37.1431 27.9742H36.4925V32.6705H32.9551V19.0087H38.0579C41.7377 19.0087 43.5877 20.2488 43.5877 23.4813C43.5877 25.5143 42.2256 26.5308 41.4531 26.9374C42.5509 28.2385 42.4696 29.8649 44.0756 29.8649H44.6855V32.6095V32.6095ZM37.692 25.311C39.1151 25.311 40.1316 24.7214 40.1316 23.6033C40.1316 22.4648 39.2981 21.8346 37.936 21.8346H36.5128V25.3313H37.692V25.311Z" fill="white"/>
<path d="M56.05 26.1648C56.7209 26.6934 57.2698 27.5269 57.2698 28.7467C57.2698 31.6336 55.1351 32.6501 52.6142 32.6501H46.1289V18.9883H51.9027C54.6879 18.9883 56.3346 20.0251 56.3346 22.6884C56.3346 25.0263 54.8708 25.3923 54.139 25.3923V25.4329C54.6066 25.4126 55.3791 25.6362 56.05 26.1648ZM51.0691 24.4164C52.2483 24.4164 52.6955 23.9488 52.6955 23.095C52.6955 22.2614 52.0856 21.8142 50.8252 21.8142H49.6867V24.4367H51.0691V24.4164ZM51.4961 29.8445C52.6549 29.8445 53.1834 29.4379 53.1834 28.3605C53.1834 27.283 52.4516 26.856 51.4147 26.856H49.707V29.8445H51.4961Z" fill="white"/>
<path d="M58.957 32.6705V19.0087H62.4945V29.8446H67.9836V32.6705H58.957Z" fill="white"/>
<path d="M71.3984 32.6705V19.0087H76.3996C79.1849 19.0087 80.8113 20.0862 80.8113 22.6071C80.8113 25.067 79.3678 25.4736 78.6969 25.4736V25.5143C79.5915 25.5143 81.7261 26.2665 81.7261 28.8891C81.7261 31.715 79.4695 32.6705 76.9282 32.6705H71.3984V32.6705ZM76.237 24.7621C77.7821 24.7621 78.2903 24.0099 78.2903 22.8714C78.2903 21.6922 77.5381 21.001 75.8507 21.001H73.8584V24.7621H76.237ZM76.481 30.6781C77.8837 30.6781 79.0832 30.2309 79.0832 28.6045C79.0832 27.0797 77.9447 26.5105 76.4606 26.5105H73.8584V30.6781H76.481Z" fill="white"/>
<path d="M91.2408 29.1534H86.2396L85.0401 32.6705H82.4785L87.5204 19.0087H90.0006L95.0425 32.6705H92.4809L91.2408 29.1534ZM86.9105 27.2627H90.6106L88.7605 22.0379L86.9105 27.2627Z" fill="white"/>
<path d="M104.577 32.6705L99.2099 23.461V32.6705H96.75V19.0087H99.3319L104.719 28.4825V19.0087H107.159V32.6705H104.577Z" fill="white"/>
<path d="M121.411 30.8204C119.642 30.8204 119.601 27.8523 118.158 26.4088C118.015 26.2665 117.344 25.4736 116.206 25.1484L121.431 19.0087H118.3L113.075 25.0874V25.067V19.0087H110.615V25.9006V29.438V32.6502H113.075V29.438V28.8281L114.6 27.0391H114.763C117.649 27.0391 116.714 32.7518 120.699 32.7518C121.492 32.7518 122 32.6298 122 32.6298V30.8001H121.411V30.8204Z" fill="white"/>
<path d="M6.52596 6.40398V0H0V12.8283C1.42311 10.0431 3.72041 7.78643 6.52596 6.40398Z" fill="white"/>
<path d="M6.52596 8.25399C2.62258 10.5106 0 14.6986 0 19.5169V31.5319V34.1545H6.52596V32.4468V30.8001V19.5169C6.52596 16.2031 9.00623 13.4585 12.2387 13.0722V6.54626C10.165 6.64792 8.21336 7.25782 6.52596 8.25399Z" fill="white"/>
<path d="M13.8663 6.526V13.052C17.0784 13.4586 19.579 16.1828 19.579 19.4966C19.579 23.095 16.6515 26.0022 13.0531 26.0022C11.1014 26.0022 9.3733 25.128 8.17383 23.7659V31.5727C9.67825 32.1826 11.325 32.5282 13.0531 32.5282C20.2702 32.5282 26.105 26.6935 26.105 19.5169C26.105 12.6047 20.6972 6.95293 13.8663 6.526Z" fill="white"/>
<path d="M62.8597 47.7554C62.8597 47.7554 62.6768 47.796 62.3718 47.796C61.8432 47.796 61.5586 47.5114 61.6806 47.0235L61.7009 46.9828C61.5993 47.1251 61.0707 47.8164 59.9932 47.8164C59.058 47.8164 58.2855 47.0845 58.7124 45.3971C59.1597 43.6284 60.2372 42.9371 61.274 42.9371C62.1685 42.9371 62.4531 43.4657 62.5548 43.5877L62.6971 42.9981H63.6526L62.7784 46.5152C62.6971 46.7999 62.7581 46.9625 63.063 46.9625L62.8597 47.7554ZM62.1279 44.7262C62.1482 44.5839 62.0872 43.8317 61.2537 43.8317C60.6234 43.8317 60.0135 44.3196 59.7492 45.3767C59.485 46.4339 59.9119 46.9015 60.5015 46.9015C61.4366 46.9015 61.8229 45.9257 61.8229 45.946L62.1279 44.7262Z" fill="white"/>
<path d="M63.8379 50.1747L65.322 44.218C65.383 43.9334 65.3423 43.7707 65.0374 43.7707L65.2407 42.9779C65.2407 42.9779 65.4236 42.9372 65.7286 42.9372C66.2165 42.9372 66.5418 43.2218 66.4198 43.6894L66.3995 43.7504C66.5418 43.5674 67.05 42.9169 68.0869 42.9169C69.0424 42.9169 69.8353 43.6284 69.4083 45.3362C68.9611 47.1252 67.8429 47.8164 66.8061 47.8164C65.8506 47.8164 65.6676 47.2065 65.6676 47.2065L64.9154 50.1747H63.8379ZM65.9726 45.9867C65.9319 46.1494 65.9929 46.9016 66.8264 46.9016C67.4973 46.9016 68.1072 46.4136 68.3512 45.3565C68.6358 44.2587 68.1479 43.8317 67.5786 43.8317C66.7044 43.8317 66.2775 44.7872 66.2775 44.7872L65.9726 45.9867Z" fill="white"/>
<path d="M74.9168 47.7554C74.9168 47.7554 74.7338 47.7961 74.4289 47.7961C73.7986 47.7961 73.514 47.4302 73.7173 46.6373L74.1646 44.8482C74.3069 44.2383 74.1239 43.8317 73.4937 43.8317C72.7821 43.8317 72.3145 44.523 72.1925 45.0312L71.5013 47.7554H70.4238L71.298 44.218C71.359 43.9334 71.3184 43.7707 71.0134 43.7707L71.2167 42.9779C71.2167 42.9779 71.3997 42.9372 71.7046 42.9372C72.1925 42.9372 72.4975 43.2422 72.3755 43.6894L72.3349 43.8317C72.5991 43.3641 73.1481 42.9169 74.0223 42.9169C75.2217 42.9169 75.5064 43.7504 75.2421 44.8076L74.8151 46.495C74.7541 46.7796 74.7948 46.9422 75.0997 46.9422L74.9168 47.7554Z" fill="white"/>
<path d="M76.6438 45.3565C77.0301 43.8521 78.0669 42.9169 79.4087 42.9169C80.7708 42.9169 81.3604 43.8521 80.9741 45.3565C80.6082 46.8609 79.551 47.7961 78.1889 47.7961C76.8471 47.8164 76.2779 46.8812 76.6438 45.3565ZM79.9373 45.3565C80.1812 44.3603 79.8966 43.8317 79.2054 43.8317C78.5142 43.8317 77.9653 44.3603 77.7213 45.3565C77.4773 46.3527 77.7416 46.8812 78.4532 46.8812C79.1444 46.9016 79.673 46.373 79.9373 45.3565Z" fill="white"/>
<path d="M89.1473 47.7148C89.1473 47.7148 88.944 47.7961 88.7001 47.7961C87.0737 47.7961 88.2121 45.5598 86.7281 45.5598H86.1588L85.6099 47.7554H84.5527L86.3621 40.5586H87.4193L86.3621 44.7466H86.972C87.7649 44.7466 88.4968 44.096 88.7814 42.9779H89.7776C89.5539 43.8317 89.0254 44.7873 88.0088 45.0922C88.8424 45.5395 88.2325 46.9422 89.2287 46.9422H89.3303L89.1473 47.7148Z" fill="white"/>
<path d="M94.8187 47.7554C94.8187 47.7554 94.6358 47.796 94.3308 47.796C93.8022 47.796 93.5176 47.5114 93.6396 47.0235L93.6599 46.9828C93.5583 47.1251 93.0297 47.8164 91.9522 47.8164C91.017 47.8164 90.2445 47.0845 90.6714 45.3971C91.1187 43.6284 92.1961 42.9371 93.233 42.9371C94.1275 42.9371 94.4121 43.4657 94.5138 43.5877L94.6561 42.9981H95.6116L94.7374 46.5152C94.6561 46.7999 94.7171 46.9625 95.022 46.9625L94.8187 47.7554ZM94.0868 44.7262C94.1072 44.5839 94.0462 43.8317 93.2127 43.8317C92.5824 43.8317 91.9725 44.3196 91.7082 45.3767C91.4439 46.4339 91.8709 46.9015 92.4604 46.9015C93.3956 46.9015 93.7819 45.9257 93.7819 45.946L94.0868 44.7262Z" fill="white"/>
<path d="M98.9258 47.7554L100.735 40.5586H101.813L101.04 43.6284C101.06 43.6081 101.569 42.9169 102.585 42.9169C103.541 42.9169 104.334 43.6284 103.907 45.3362C103.459 47.1252 102.341 47.8164 101.304 47.8164C100.39 47.8164 100.125 47.2269 100.044 47.1252L99.8813 47.7554H98.9258V47.7554ZM100.451 45.9461C100.41 46.1087 100.451 46.8812 101.304 46.8812C101.955 46.8812 102.565 46.3933 102.829 45.3362C103.114 44.2383 102.626 43.8114 102.057 43.8114C101.182 43.8114 100.735 44.7669 100.735 44.7669L100.451 45.9461Z" fill="white"/>
<path d="M109.293 47.7554C109.293 47.7554 109.11 47.796 108.805 47.796C108.277 47.796 107.992 47.5114 108.114 47.0235L108.135 46.9828C108.033 47.1251 107.504 47.8164 106.427 47.8164C105.492 47.8164 104.719 47.0845 105.146 45.3971C105.593 43.6284 106.671 42.9371 107.708 42.9371C108.602 42.9371 108.887 43.4657 108.988 43.5877L109.131 42.9981H110.086L109.212 46.5152C109.131 46.7999 109.192 46.9625 109.497 46.9625L109.293 47.7554ZM108.582 44.7262C108.602 44.5839 108.541 43.8317 107.708 43.8317C107.077 43.8317 106.467 44.3196 106.203 45.3767C105.939 46.4339 106.366 46.9015 106.955 46.9015C107.891 46.9015 108.277 45.9257 108.277 45.946L108.582 44.7262Z" fill="white"/>
<path d="M115.372 47.7554C115.372 47.7554 115.189 47.7961 114.884 47.7961C114.254 47.7961 113.969 47.4302 114.172 46.6373L114.62 44.8482C114.762 44.2383 114.579 43.8317 113.949 43.8317C113.237 43.8317 112.77 44.523 112.648 45.0312L111.956 47.7554H110.879L111.753 44.218C111.814 43.9334 111.773 43.7707 111.468 43.7707L111.672 42.9779C111.672 42.9779 111.855 42.9372 112.16 42.9372C112.648 42.9372 112.953 43.2422 112.831 43.6894L112.79 43.8317C113.054 43.3641 113.603 42.9169 114.477 42.9169C115.677 42.9169 115.961 43.7504 115.697 44.8076L115.27 46.495C115.209 46.7796 115.25 46.9422 115.555 46.9422L115.372 47.7554Z" fill="white"/>
<path d="M121.331 47.7148C121.331 47.7148 121.128 47.7961 120.884 47.7961C119.257 47.7961 120.396 45.5598 118.912 45.5598H118.342L117.793 47.7554H116.736L118.546 40.5586H119.603L118.546 44.7466H119.156C119.948 44.7466 120.68 44.096 120.965 42.9779H121.961C121.738 43.8317 121.209 44.7873 120.192 45.0922C121.026 45.5395 120.416 46.9422 121.412 46.9422H121.514L121.331 47.7148Z" fill="white"/>
</svg>
